<svg xmlns="http://www.w3.org/2000/svg" viewBox="0 0 24 24" width="100" height="100" fill="none" stroke="currentColor" stroke-width="2" stroke-linecap="round" stroke-linejoin="round">
  <path d="M6 3h12a2 2 0 0 1 2 2v14a2 2 0 0 1-2 2H6a2 2 0 0 1-2-2V5a2 2 0 0 1 2-2z" fill="#23272e" stroke="#61afef" stroke-width="2.5"/>
  
  <path d="M4 3h3v18H4z" fill="#1e222b" opacity="0.5"/>

  <line x1="2" y1="6" x2="6" y2="6" stroke="#abb2bf" />
  <line x1="2" y1="10" x2="6" y2="10" stroke="#abb2bf" />
  <line x1="2" y1="14" x2="6" y2="14" stroke="#abb2bf" />
  <line x1="2" y1="18" x2="6" y2="18" stroke="#abb2bf" />

  <line x1="10" y1="8" x2="16" y2="8" stroke="#98c379" stroke-width="2" opacity="0.8" />
  <line x1="10" y1="12" x2="14" y2="12" stroke="#e5c07b" stroke-width="2" opacity="0.8" />
</svg>



