<svg xmlns="http://www.w3.org/2000/svg" viewBox="0 0 24 24" width="100" height="100" fill="none" stroke="currentColor" stroke-width="2" stroke-linecap="round" stroke-linejoin="round">
  <path d="M6 3h12a2 2 0 0 1 2 2v14a2 2 0 0 1-2 2H6a2 2 0 0 1-2-2V5a2 2 0 0 1 2-2z" fill="#000000" stroke="#ffffff" stroke-width="2"/>
  
  <line x1="7" y1="3" x2="7" y2="21" stroke="#ffffff" stroke-width="1.5" />

  <path d="M4 6h3" stroke="#ffffff" stroke-width="2"/>
  <path d="M4 10h3" stroke="#ffffff" stroke-width="2"/>
  <path d="M4 14h3" stroke="#ffffff" stroke-width="2"/>
  <path d="M4 18h3" stroke="#ffffff" stroke-width="2"/>

  <line x1="10" y1="8" x2="16" y2="8" stroke="#ffffff" stroke-width="1.5" />
  <line x1="10" y1="12" x2="15" y2="12" stroke="#ffffff" stroke-width="1.5" />
  <line x1="10" y1="16" x2="16" y2="16" stroke="#ffffff" stroke-width="1.5" />
</svg>

